<?xml version="1.0" encoding="UTF-8" standalone="no"?>
<svg
   xmlns="http://www.w3.org/2000/svg"
   width="26.458334mm"
   height="6.6145835mm"
   viewBox="0 0 26.458334 6.6145835"
   version="1.1">
  <g>
    <path
       style="fill:#000000;stroke-width:0.0344428"
       d="M 3.6508808,6.6054151 C 3.5351233,6.5829156 3.3997836,6.4314727 3.3562501,6.275729 3.3021556,6.0822025 3.3378913,5.5006963 3.4303027,5.0707259 3.4718198,4.877554 3.4965107,4.7104673 3.4851713,4.6994219 3.4738306,4.6883723 3.407401,4.746995 3.337548,4.8296852 3.1168691,5.0909216 2.6119584,5.5506632 2.3244573,5.7521464 1.7814084,6.1327191 1.2796276,6.3234423 0.82514025,6.3220238 0.22813804,6.3201608 0.00316183,6.0052256 4.0190366e-5,5.1669952 -0.00101499,4.8849352 0.01870564,4.6524614 0.05868334,4.4755216 0.30357315,3.391647 0.89165117,2.3556492 1.6731988,1.6312821 2.6562717,0.7201349 3.6005895,0.28954789 4.7091731,0.24694811 c 0.4008517,-0.0154034 0.4898238,-0.008518 0.702479,0.0544044 0.2840117,0.0840291 0.5565309,0.25533399 0.6475502,0.40704581 0.082815,0.1380391 0.084634,0.50127358 0.00331,0.65907538 -0.031538,0.06118 -0.1396882,0.1953728 -0.240339,0.2982022 C 5.6155546,1.8767682 5.3218684,2.4458054 4.9888175,3.2803625 4.5311271,4.4272404 4.3544717,5.0627206 4.3784473,5.4760348 4.3960718,5.7798787 4.4618357,5.8540315 4.7120052,5.852143 5.1425576,5.8489019 6.100645,5.3695477 6.8439207,4.7855104 7.020546,4.6467262 7.0355859,4.622021 7.149907,4.2828943 7.2620246,3.9503032 7.2665632,3.9201479 7.2171625,3.8360085 7.156436,3.7325789 7.1471584,3.4938496 7.20012,3.3974556 7.2417161,3.3217481 7.4144262,3.2271568 7.5655155,3.197333 7.6640979,3.1778735 7.6836546,3.1439743 7.900529,2.6166337 8.0272045,2.3086156 8.2057718,1.8500908 8.2973451,1.5976887 8.5110146,1.0087578 8.6198609,0.80123468 8.8357996,0.57108902 9.0283921,0.36582458 9.3365328,0.20615218 9.594783,0.17779815 9.8317779,0.1517786 9.8280846,0.23063128 9.5615011,0.88830618 9.2802573,1.5821517 8.6822225,3.2916609 8.71095,3.319645 8.7443401,3.3521689 9.491917,3.2628945 9.7745813,3.1926293 9.9147062,3.1577948 10.135625,3.0748989 10.265513,3.0084149 l 0.236158,-0.1208807 0.167787,-0.4154664 c 0.38883,-0.9628099 0.648434,-1.267314 1.136178,-1.3326893 0.118365,-0.015866 0.188878,-0.00497 0.286311,0.044206 l 0.129271,0.065256 0.306955,-0.2717677 c 0.40402,-0.35770601 0.741749,-0.57114687 1.117038,-0.70595601 0.268552,-0.0964659 0.352188,-0.11064995 0.673086,-0.11414972 0.611424,-0.006668 0.931421,0.14377826 1.122685,0.52783147 0.125673,0.25234685 0.17096,0.49345306 0.171232,0.91164056 5.29e-4,0.8538071 -0.392946,1.8366429 -1.116528,2.7887096 -0.287193,0.3778786 -0.834897,0.9115597 -1.133812,1.1047842 -0.144615,0.093483 -0.263402,0.1794388 -0.263973,0.1910149 -0.0015,0.030999 0.232911,0.063305 0.452638,0.062377 0.59648,-0.00251 1.423108,-0.2843845 2.243723,-0.7650589 0.227258,-0.1331172 0.286275,-0.1867866 0.358901,-0.3263933 0.131488,-0.2527515 0.509354,-0.5726642 0.676406,-0.5726642 0.0217,0 0.03663,0.099051 0.03714,0.2464521 0.0011,0.3003031 0.04837,0.5137567 0.142468,0.6424761 0.05859,0.080146 0.09603,0.096847 0.216761,0.096691 0.08027,-1.029e-4 0.203664,-0.015806 0.274215,-0.034895 0.433894,-0.1173874 1.310445,-0.9570697 2.18125,-2.0895025 0.653657,-0.8500452 0.768711,-1.0480583 0.987575,-1.6996703 0.178461,-0.53131839 0.242526,-0.66014554 0.387301,-0.77880616 0.167595,-0.13736715 0.28136,-0.18452408 0.549031,-0.2275838 0.439107,-0.0706365 0.516299,-0.006694 0.459856,0.38097099 -0.04458,0.30619881 -0.190258,0.73352627 -0.412492,1.21001377 -0.302109,0.6477434 -0.982927,2.7174166 -0.982927,2.9880754 0,0.1315085 0.09328,0.1356598 0.344539,0.015339 C 21.65209,4.5233453 22.65612,3.6907449 23.241777,2.9816039 23.432461,2.7507002 23.467045,2.6812021 23.653049,2.1550974 23.950485,1.3138132 24.187978,0.73678063 24.334719,0.49885427 24.557087,0.138305 24.823684,-4.8831628e-8 25.296314,-4.8831628e-8 c 0.176117,0 0.194018,0.0073232988316 0.228519,0.09348130883163 0.121593,0.30365878 -0.174448,1.12158804 -0.70953,1.96036314 -0.198401,0.3110039 -0.353139,0.7341712 -0.703317,1.9233828 -0.318915,1.0830457 -0.358713,1.36706 -0.211632,1.5103283 0.217503,0.2118644 1.25895,-0.2219358 2.135909,-0.8896797 0.309911,-0.2359759 0.337715,-0.2500934 0.38045,-0.1931643 0.08786,0.1170444 0.04973,0.1814125 -0.241804,0.4081161 -0.727212,0.5655065 -1.811792,1.1733305 -2.483782,1.391967 -0.355717,0.115735 -0.853496,0.1802404 -0.974945,0.1263398 -0.211108,-0.093693 -0.154712,-0.5262437 0.24264,-1.861004 0.128014,-0.4300151 0.240563,-0.8255096 0.250108,-0.8788731 0.01474,-0.082374 -0.04261,-0.038322 -0.379743,0.2917293 -0.37988,0.3719006 -1.718862,1.4922899 -2.170388,1.8160672 -0.331939,0.2380254 -0.813217,0.4537505 -1.012305,0.4537505 -0.147478,0 -0.169088,-0.00993 -0.203293,-0.093483 -0.02754,-0.067257 -0.02782,-0.1649991 -0.0011,-0.3484311 0.02858,-0.195459 0.405011,-1.5032067 0.795028,-2.7619641 0.03456,-0.1115441 -0.07212,-0.059967 -0.177284,0.08571 -0.182103,0.2522582 -1.192565,1.466504 -1.503222,1.8063824 -0.496049,0.5427041 -1.066256,0.9817709 -1.48554,1.1438778 -0.106754,0.041274 -0.300913,0.079543 -0.449625,0.088621 -0.22084,0.013481 -0.279193,0.00523 -0.373461,-0.052844 C 16.07946,5.9168283 16.018778,5.7709841 15.99595,5.4148083 L 15.975884,5.1017281 15.810386,5.2022486 C 14.718494,5.865443 13.96286,6.0973873 12.939752,6.0833988 l -0.488574,-0.00668 -0.279185,0.1215361 C 11.344261,6.5585882 10.523677,6.375069 10.231672,5.7643144 10.026749,5.335697 10.015948,4.7841843 10.195672,3.9262378 c 0.05483,-0.261749 0.09559,-0.4807337 0.09057,-0.4866322 -0.005,-0.0059 -0.105374,0.036601 -0.223008,0.094444 C 9.7526953,3.6867431 9.2589024,3.8400262 8.8407361,3.9135353 8.6400304,3.9488172 8.4654117,3.989054 8.4526972,4.0029503 8.4399839,4.0168475 8.3937642,4.1735384 8.3499912,4.3511542 8.2437924,4.7820701 8.0212097,5.409551 7.887907,5.6538127 7.7787799,5.8537748 7.5482187,6.0813175 7.3560571,6.1786984 7.2340541,6.2405249 6.7854736,6.2733216 6.7135804,6.2256715 6.6141986,6.1598015 6.6263039,5.8542078 6.7421884,5.5034139 6.8015031,5.3238647 6.8500333,5.1657854 6.8500333,5.1521256 c 0,-0.013659 -0.05889,0.019953 -0.1308679,0.074691 -0.071977,0.05474 -0.272205,0.1907324 -0.4449505,0.302206 C 5.200803,6.2217028 4.0679912,6.6865012 3.650818,6.6054154 Z M 12.887465,5.4310338 C 13.743553,5.0345604 14.506033,3.4589124 14.503956,2.0905932 14.503426,1.7496177 14.490429,1.6501377 14.424684,1.4844242 14.280698,1.1215097 14.085471,0.97927829 13.669,0.93387897 c -0.173014,-0.0188595 -0.244551,-0.008197 -0.450004,0.0670441 -0.604452,0.221377 -1.119066,0.7071766 -1.478393,1.3956106 -0.25766,0.4936536 -0.36843,1.2046716 -0.287384,1.8446947 0.08958,0.7073824 0.358936,1.0933754 0.886341,1.270128 0.205781,0.068965 0.234715,0.064722 0.547905,-0.080323 z M 2.1829151,5.3461066 C 3.0310352,4.9581593 3.6470636,4.1251157 4.1629944,2.6684813 4.2623263,2.3880362 4.4052866,2.0351507 4.4806839,1.8842919 4.6365864,1.572354 4.9240211,1.2372153 5.0955187,1.1674165 5.2271843,1.1138292 5.2189653,1.0703031 5.0471241,0.91112662 4.8707161,0.74771933 4.70407,0.6990785 4.3355296,0.70342365 3.4651156,0.71368912 2.8381783,1.0690851 2.1767242,1.9272026 1.5652406,2.7204935 1.1251418,3.8652168 1.1141241,4.6910885 c -0.00553,0.4146726 0.052317,0.5740212 0.2569738,0.707855 0.1757619,0.1149373 0.4897029,0.094505 0.8118172,-0.052837 z" />
  </g>
</svg>
